<?xml version="1.0" standalone="no"?>
<!DOCTYPE svg PUBLIC "-//W3C//DTD SVG 20010904//EN"
 "http://www.w3.org/TR/2001/REC-SVG-20010904/DTD/svg10.dtd">
<svg version="1.0" xmlns="http://www.w3.org/2000/svg"
 width="400.000000pt" height="400.000000pt" viewBox="0 0 400.000000 400.000000"
 preserveAspectRatio="xMidYMid meet">
<metadata>
Created by potrace 1.14, written by Peter Selinger 2001-2017
</metadata>
<g transform="translate(0.000000,400.000000) scale(0.100000,-0.100000)"
fill="#000000" stroke="none">
<path d="M1015 3700 c-133 -21 -246 -80 -350 -185 -84 -83 -143 -178 -170
-272 -14 -50 -27 -158 -45 -373 -6 -69 -15 -173 -20 -232 -6 -60 -14 -156 -20
-215 -5 -60 -14 -164 -20 -233 -6 -69 -15 -170 -20 -225 -5 -55 -14 -156 -20
-225 -6 -69 -15 -172 -20 -230 -5 -58 -14 -159 -20 -225 -6 -66 -15 -161 -20
-212 -14 -131 -12 -283 4 -345 42 -162 150 -298 290 -366 156 -76 117 -74
1326 -70 983 3 1070 5 1125 21 225 66 400 235 460 445 15 52 29 162 45 357 6
72 15 175 20 230 5 55 14 156 20 225 6 69 15 172 20 230 5 58 14 159 20 225
21 235 30 336 40 443 5 59 14 166 20 237 6 72 15 166 20 210 14 115 12 301 -4
360 -43 162 -166 308 -316 377 -122 56 -28 52 -1220 54 -602 1 -1117 -2 -1145
-6z m1259 -115 c24 -25 29 -54 12 -80 -37 -56 -116 -35 -116 30 0 18 7 41 16
49 20 20 68 21 88 1z m-192 -82 c10 -9 18 -30 18 -49 0 -57 -69 -85 -110 -44
-58 58 31 149 92 93z m392 -5 c9 -12 16 -31 16 -42 0 -28 -39 -66 -67 -66 -52
0 -82 72 -46 112 23 26 78 24 97 -4z m-474 -188 c42 -42 14 -110 -46 -110 -61
0 -86 71 -38 109 33 26 58 27 84 1z m550 0 c41 -41 13 -110 -45 -110 -58 0
-86 69 -45 110 11 11 31 20 45 20 14 0 34 -9 45 -20z m-468 -197 c38 -34 8
-113 -42 -113 -26 0 -70 43 -70 67 0 10 7 29 16 41 18 27 69 30 96 5z m390 0
c27 -24 23 -68 -8 -92 -15 -12 -32 -21 -39 -21 -25 0 -65 41 -65 67 0 55 70
84 112 46z m-186 -89 c22 -33 10 -72 -29 -94 -24 -13 -30 -13 -54 0 -34 19
-44 78 -18 104 26 26 81 21 101 -10z m-376 -61 c15 -19 19 -35 15 -53 -18 -74
-125 -63 -125 13 0 66 70 91 110 40z m-225 -28 c29 -28 31 -51 9 -83 -18 -27
-69 -30 -96 -5 -38 34 -8 113 42 113 12 0 32 -11 45 -25z m443 -23 c13 -17 16
-61 4 -78 -27 -41 -93 -35 -114 11 -30 66 65 124 110 67z m-650 -58 c26 -18
30 -74 6 -98 -19 -19 -77 -21 -92 -3 -6 6 -13 24 -17 39 -5 21 -1 33 19 52 29
30 52 33 84 10z m861 -10 c12 -15 21 -32 21 -39 0 -7 -9 -24 -21 -39 -38 -48
-109 -24 -109 37 0 65 70 91 109 41z m-1029 -134 c41 -41 10 -110 -49 -110
-34 0 -61 30 -61 67 0 30 34 63 65 63 14 0 34 -9 45 -20z m1193 -8 c54 -47
-18 -137 -79 -97 -32 21 -39 41 -28 73 17 48 66 59 107 24z m-916 -114 c28
-26 30 -61 3 -88 -41 -41 -110 -15 -110 42 0 33 31 68 62 68 12 0 32 -10 45
-22z m-447 -26 c44 -36 17 -112 -41 -112 -28 0 -69 39 -69 67 0 21 46 63 68
63 11 0 30 -8 42 -18z m599 -38 c18 -16 19 -68 1 -88 -16 -20 -83 -21 -99 -2
-7 8 -11 32 -9 53 5 58 64 79 107 37z m876 -14 c24 -27 22 -70 -5 -92 -31 -25
-56 -23 -86 8 -20 19 -24 31 -19 52 12 52 75 70 110 32z m-1209 -44 c21 -33
15 -65 -17 -89 -61 -45 -133 38 -82 95 24 27 79 24 99 -6z m856 -33 c10 -9 18
-30 18 -46 0 -65 -70 -91 -109 -41 -12 15 -21 32 -21 39 0 7 9 24 21 39 24 30
63 34 91 9z m526 -70 c32 -43 1 -103 -54 -103 -62 0 -86 72 -37 110 30 24 69
20 91 -7z m-1710 -13 c42 -40 14 -110 -45 -110 -57 0 -84 69 -43 110 26 26 60
25 88 0z m1364 3 c26 -23 24 -78 -4 -97 -12 -9 -31 -16 -42 -16 -28 0 -66 39
-66 67 0 52 72 82 112 46z m-768 -45 c22 -32 20 -55 -9 -83 -29 -30 -58 -32
-85 -5 -24 24 -26 67 -3 92 23 26 78 24 97 -4z m-399 -18 c37 -41 9 -110 -46
-110 -28 0 -69 39 -69 65 0 7 9 24 21 39 25 32 68 35 94 6z m1717 3 c20 -18
23 -54 8 -82 -8 -16 -5 -20 18 -24 57 -12 62 -94 7 -119 -55 -25 -113 39 -80
88 13 20 13 24 2 24 -25 0 -67 41 -67 64 0 57 69 88 112 49z m-810 -70 c26
-23 24 -78 -4 -97 -32 -23 -55 -20 -84 10 -20 19 -24 31 -19 52 12 50 69 69
107 35z m441 -15 c9 -11 17 -28 17 -38 0 -23 -29 -57 -56 -64 -31 -9 -74 28
-74 64 0 19 9 36 27 49 30 24 58 20 86 -11z m-1506 -42 c41 -39 12 -109 -45
-109 -41 0 -62 19 -62 57 0 65 62 95 107 52z m1716 -28 c9 -11 17 -31 17 -43
0 -24 -42 -65 -65 -65 -7 0 -24 9 -39 21 -35 28 -35 70 1 98 30 24 58 20 86
-11z m-1233 -38 c58 -58 -20 -142 -88 -94 -30 21 -30 77 0 98 31 22 64 20 88
-4z m590 -90 c41 -41 15 -110 -42 -110 -32 0 -68 31 -68 59 0 29 39 71 66 71
13 0 33 -9 44 -20z m-660 -120 c41 -41 13 -110 -45 -110 -58 0 -86 69 -45 110
11 11 31 20 45 20 14 0 34 -9 45 -20z m754 -92 c23 -33 19 -64 -10 -87 -33
-26 -58 -27 -84 -1 -24 24 -26 67 -3 92 23 26 78 24 97 -4z m-816 -125 c18
-25 15 -68 -8 -88 -27 -24 -70 -22 -92 5 -25 31 -23 56 8 86 19 20 31 24 52
19 15 -3 33 -13 40 -22z m440 -41 c13 -17 16 -61 4 -78 -27 -41 -93 -35 -114
11 -30 66 65 124 110 67z m462 -32 c41 -41 10 -110 -49 -110 -34 0 -61 30 -61
67 0 30 34 63 65 63 14 0 34 -9 45 -20z m-961 -156 c23 -52 -34 -109 -86 -85
-33 15 -47 56 -31 89 23 48 94 45 117 -4z m371 26 c11 -11 20 -31 20 -45 0
-14 -9 -34 -20 -45 -11 -11 -31 -20 -45 -20 -14 0 -34 9 -45 20 -11 11 -20 31
-20 45 0 14 9 34 20 45 11 11 31 20 45 20 14 0 34 -9 45 -20z m230 -32 c25
-28 26 -62 0 -88 -42 -42 -110 -14 -110 46 0 59 69 85 110 42z m403 -39 c29
-16 37 -28 37 -61 0 -36 -24 -58 -65 -58 -61 0 -84 61 -40 105 27 28 37 30 68
14z m-740 -121 c9 -7 19 -25 22 -40 5 -21 1 -33 -19 -52 -29 -30 -52 -33 -84
-10 -27 18 -30 69 -5 96 19 21 62 24 86 6z m-350 -20 c9 -7 19 -25 22 -40 5
-21 1 -33 -19 -52 -30 -31 -55 -33 -86 -8 -27 22 -29 65 -5 92 20 23 63 26 88
8z m787 -18 c58 -58 -20 -142 -88 -94 -30 21 -30 77 0 98 31 22 64 20 88 -4z
m380 -70 c11 -11 20 -31 20 -45 0 -14 -9 -34 -20 -45 -11 -11 -31 -20 -45 -20
-14 0 -34 9 -45 20 -11 11 -20 31 -20 45 0 14 9 34 20 45 11 11 31 20 45 20
14 0 34 -9 45 -20z m-916 -96 c51 -50 -19 -139 -79 -100 -56 37 -35 116 30
116 18 0 41 -7 49 -16z m-320 -36 c22 -31 20 -64 -4 -88 -58 -58 -142 20 -94
88 10 15 25 22 49 22 24 0 39 -7 49 -22z m944 6 c45 -31 18 -114 -37 -114 -32
0 -44 8 -60 37 -15 30 -14 36 10 67 23 29 54 33 87 10z m358 -99 c21 -31 12
-69 -21 -91 -60 -39 -127 44 -78 98 25 27 79 24 99 -7z m-1106 -55 c41 -41 13
-110 -45 -110 -58 0 -86 69 -45 110 11 11 31 20 45 20 14 0 34 -9 45 -20z
m-310 -42 c25 -28 26 -62 0 -88 -41 -41 -110 -13 -110 45 0 59 69 87 110 43z
m1136 -24 c20 -19 24 -31 19 -52 -18 -78 -125 -66 -125 14 0 23 7 38 22 48 32
23 55 20 84 -10z m337 -95 c31 -43 2 -99 -52 -99 -58 0 -85 76 -41 112 31 25
68 19 93 -13z m-1295 -19 c45 -42 17 -110 -44 -110 -61 0 -86 71 -38 109 34
26 54 26 82 1z m-300 -46 c15 -10 22 -25 22 -46 0 -81 -106 -95 -125 -16 -5
21 -1 33 19 52 29 30 52 33 84 10z m1327 -49 c29 -28 31 -51 9 -83 -18 -27
-69 -30 -96 -5 -38 34 -8 113 42 113 12 0 32 -11 45 -25z m214 -41 c12 -15 21
-33 21 -41 0 -22 -47 -63 -73 -63 -30 0 -59 32 -59 65 0 62 73 87 111 39z
m-1383 -28 c21 -33 15 -65 -17 -89 -61 -45 -133 38 -82 95 24 27 79 24 99 -6z"/>
</g>
</svg>
